<svg version="1.1" id="Layer_1" xmlns="http://www.w3.org/2000/svg" xmlns:xlink="http://www.w3.org/1999/xlink" x="0px" y="0px"
	 viewBox="0 0 512 512" style="enable-background:new 0 0 512 512;" xml:space="preserve">
<style type="text/css">
	.st0{fill:#333333;}
</style>
<g id="XMLID_4_">
	<path id="XMLID_6_" class="st0" d="M349.7,116.6v267.2c0,51.1-41.2,93.3-93.3,93.3c-51.1,0-93.3-41.2-93.3-93.3V93.3
		c0-32.3,26-58.3,58.3-58.3s58.3,26,58.3,58.3v243.9c0,12.6-10.8,23.3-23.3,23.3c-12.6,0-23.3-10.8-23.3-23.3V116.6h-35v220.6
		c0,32.3,26,58.3,58.3,58.3s58.3-26,58.3-58.3V93.3c0-51.1-41.2-93.3-93.3-93.3s-93.3,41.2-93.3,93.3v290.5
		c0,70.8,57.4,128.2,127.3,128.2c70.8,0,128.2-57.4,128.2-128.2V116.6H349.7z"/>
</g>
</svg>
