<svg fill="#000000" version="1.1" id="Capa_1" xmlns="http://www.w3.org/2000/svg" xmlns:xlink="http://www.w3.org/1999/xlink" 
	 viewBox="0 0 60 60" xml:space="preserve">
<g>
	<path d="M12,17.5h15c0.553,0,1-0.448,1-1s-0.447-1-1-1H12c-0.553,0-1,0.448-1,1S11.447,17.5,12,17.5z"/>
	<path d="M46,23.5H12c-0.553,0-1,0.448-1,1s0.447,1,1,1h34c0.553,0,1-0.448,1-1S46.553,23.5,46,23.5z"/>
	<path d="M46,31.5H12c-0.553,0-1,0.448-1,1s0.447,1,1,1h34c0.553,0,1-0.448,1-1S46.553,31.5,46,31.5z"/>
	<path d="M54,2.5H6c-3.252,0-6,2.748-6,6v33c0,3.252,2.748,6,6,6h14.555l8.702,9.669C29.446,57.38,29.717,57.5,30,57.5
		s0.554-0.12,0.743-0.331l8.702-9.669H54c3.252,0,6-2.748,6-6v-33C60,5.248,57.252,2.5,54,2.5z M58,41.5c0,2.168-1.832,4-4,4H41.461
		l2.313-2.289c0.393-0.389,0.396-1.022,0.008-1.415c-0.388-0.392-1.022-0.396-1.414-0.007l-4.01,3.968
		c-0.032,0.028-0.073,0.042-0.101,0.074L30,55.005l-8.257-9.174c-0.007-0.007-0.016-0.01-0.023-0.017
		c-0.007-0.008-0.009-0.018-0.017-0.025l-4.042-4c-0.392-0.389-1.026-0.384-1.414,0.007c-0.389,0.393-0.385,1.026,0.008,1.415
		l2.313,2.289H6c-2.168,0-4-1.832-4-4v-33c0-2.168,1.832-4,4-4h48c2.168,0,4,1.832,4,4V41.5z"/>
</g>
</svg>