<svg fill="#000000" version="1.1" xmlns="http://www.w3.org/2000/svg" xmlns:xlink="http://www.w3.org/1999/xlink" 
	 viewBox="0 0 512 512" xml:space="preserve">
<g>
	<g>
		<path d="M483.567,206.769H305.231V28.787C305.231,12.546,293.01,0,276.731,0h-39.423c-16.279,0-30.539,12.546-30.539,28.787
			v177.982H30.471C14.231,206.769,0,219.344,0,235.623v39.423c0,16.279,14.231,30.185,30.471,30.185h176.298v176.656
			c0,16.236,14.26,30.113,30.539,30.113h39.423c16.279,0,28.5-13.877,28.5-30.113V305.231h178.336
			c16.241,0,28.433-13.906,28.433-30.185v-39.423C512,219.344,499.808,206.769,483.567,206.769z M492.308,275.046
			c0,5.418-3.356,10.493-8.74,10.493H296.404c-5.442,0-10.865,3.744-10.865,9.18v187.168c0,5.471-3.298,10.421-8.808,10.421h-39.423
			c-5.423,0-10.846-5.041-10.846-10.421V294.719c0-5.436-3.385-9.18-8.827-9.18H30.471c-5.471,0-10.779-4.983-10.779-10.493v-39.423
			c0-5.417,5.394-9.161,10.779-9.161h187.164c5.442,0,8.827-5.074,8.827-10.512V28.787c0-5.472,5.337-9.095,10.846-9.095h39.423
			c5.423,0,8.808,3.714,8.808,9.095V215.95c0,5.438,5.423,10.512,10.865,10.512h187.163c5.471,0,8.74,3.651,8.74,9.161V275.046z"/>
	</g>
</g>
</svg>